<?xml version="1.0" standalone="no"?>
<!DOCTYPE svg PUBLIC "-//W3C//DTD SVG 20010904//EN"
 "http://www.w3.org/TR/2001/REC-SVG-20010904/DTD/svg10.dtd">
<svg version="1.0" xmlns="http://www.w3.org/2000/svg"
 width="1080.000000pt" height="1080.000000pt" viewBox="0 0 1080.000000 1080.000000"
 preserveAspectRatio="xMidYMid meet">
<metadata>
Created by potrace 1.11, written by Peter Selinger 2001-2013
</metadata>
<g transform="translate(0.000000,1080.000000) scale(0.100000,-0.100000)"
fill="#000000" stroke="none">
<path d="M5250 6466 c0 -14 -4 -15 -21 -5 -15 8 -19 8 -15 0 4 -6 3 -11 -3
-11 -5 0 -13 5 -16 10 -4 6 -12 7 -18 3 -7 -4 -20 -6 -29 -5 -10 2 -18 -2 -18
-9 0 -8 -4 -9 -13 0 -10 8 -17 7 -25 -1 -9 -9 -12 -9 -12 0 0 9 -5 10 -16 4
-9 -5 -25 -7 -35 -5 -11 3 -19 0 -19 -7 0 -10 -3 -10 -15 0 -12 10 -16 9 -21
-5 -5 -13 -9 -14 -15 -4 -6 10 -11 10 -22 0 -11 -9 -16 -9 -19 0 -3 8 -9 7
-20 -5 -12 -12 -18 -13 -21 -3 -3 9 -7 9 -17 0 -7 -6 -19 -9 -27 -6 -8 3 -19
0 -24 -8 -6 -10 -9 -10 -9 -1 0 19 -30 14 -30 -5 0 -16 -2 -16 -10 -3 -9 13
-12 12 -25 -4 -14 -19 -15 -19 -15 -2 0 16 -2 17 -17 5 -9 -8 -24 -13 -35 -11
-10 2 -18 -3 -18 -10 0 -10 -3 -9 -10 2 -9 13 -12 12 -25 -4 -8 -11 -15 -15
-15 -10 0 17 -30 12 -31 -5 0 -10 -2 -12 -6 -3 -5 14 -33 17 -33 3 0 -5 -9 -7
-20 -4 -15 4 -20 0 -21 -13 0 -11 -3 -14 -6 -6 -7 18 -33 15 -34 -5 0 -11 -3
-13 -6 -5 -7 18 -33 15 -34 -5 0 -15 -2 -15 -7 -3 -11 24 -32 22 -33 -3 0 -20
-1 -20 -8 -3 -6 17 -9 17 -21 4 -8 -8 -22 -13 -32 -10 -10 2 -18 0 -18 -6 0
-6 -9 -8 -20 -5 -15 4 -20 0 -21 -13 0 -11 -3 -14 -6 -6 -2 6 -11 12 -18 12
-7 0 -16 -6 -18 -12 -4 -10 -6 -10 -6 -1 -1 18 -31 3 -31 -16 0 -12 -2 -13 -9
-3 -7 11 -11 11 -24 -2 -10 -11 -17 -12 -19 -4 -3 8 -9 7 -18 -4 -8 -8 -22
-13 -32 -10 -12 3 -18 -2 -19 -14 0 -19 -1 -19 -8 0 -6 16 -9 16 -22 5 -8 -8
-21 -15 -29 -17 -8 -2 -18 -9 -22 -15 -6 -9 -8 -9 -8 0 0 19 -30 3 -31 -16 0
-10 -2 -11 -6 -3 -7 18 -33 15 -33 -5 0 -14 -2 -15 -9 -5 -7 11 -11 11 -23 -2
-9 -8 -19 -12 -23 -8 -3 4 -13 -2 -21 -12 -8 -11 -14 -15 -14 -8 0 6 -7 9 -15
6 -8 -4 -15 -14 -15 -23 0 -14 -2 -14 -10 -1 -9 13 -12 12 -25 -4 -8 -11 -15
-15 -15 -8 0 6 -7 9 -15 6 -8 -4 -15 -14 -15 -23 0 -12 -2 -13 -9 -3 -7 11
-11 11 -23 -2 -9 -8 -19 -12 -23 -8 -3 4 -13 -2 -21 -12 -8 -11 -14 -15 -14
-8 0 18 -30 2 -31 -17 0 -9 -3 -11 -5 -4 -7 17 -34 4 -34 -16 0 -14 -2 -14
-10 -1 -9 13 -12 12 -25 -4 -8 -11 -15 -15 -15 -8 0 18 -30 2 -31 -17 0 -9 -3
-11 -5 -4 -7 17 -34 4 -34 -16 0 -13 -2 -13 -9 -2 -7 10 -11 9 -23 -8 -8 -11
-18 -18 -22 -13 -4 4 -14 -2 -22 -12 -8 -11 -14 -15 -14 -8 0 6 -7 9 -15 6 -8
-4 -15 -14 -15 -23 0 -13 -2 -13 -9 -2 -10 16 -31 6 -31 -14 0 -9 -6 -12 -15
-9 -9 4 -18 -2 -24 -17 -5 -13 -10 -18 -10 -11 -2 26 -31 12 -32 -15 -1 -16
-3 -21 -6 -11 -6 23 -33 11 -34 -16 -1 -16 -2 -17 -6 -4 -6 23 -33 11 -34 -16
-1 -17 -2 -18 -6 -3 -4 14 -8 16 -19 6 -8 -6 -14 -19 -14 -28 0 -13 -2 -13 -9
-2 -11 17 -31 6 -32 -17 0 -10 -3 -12 -5 -5 -7 17 -34 4 -35 -16 0 -10 -2 -11
-6 -3 -7 19 -20 14 -26 -9 -4 -15 -11 -20 -22 -15 -9 3 -18 -1 -22 -10 -3 -8
-11 -13 -18 -11 -6 3 -17 -4 -24 -15 -7 -11 -18 -17 -27 -14 -8 3 -13 2 -10
-3 3 -4 -14 -18 -37 -30 -23 -12 -62 -35 -87 -51 -25 -16 -58 -36 -73 -45 -16
-9 -63 -41 -105 -71 -42 -30 -87 -54 -99 -54 l-23 0 20 -20 c11 -11 22 -19 25
-17 2 1 12 -8 20 -21 9 -12 20 -20 25 -17 4 3 10 -2 14 -10 3 -8 12 -12 19 -9
9 3 17 -3 20 -17 4 -14 11 -20 21 -16 10 4 16 1 16 -7 0 -18 27 -28 34 -13 2
7 5 2 5 -9 1 -24 27 -40 35 -21 2 7 5 5 5 -4 1 -9 7 -22 15 -28 11 -10 15 -8
19 6 4 17 5 17 6 0 0 -10 7 -25 15 -33 13 -12 15 -11 19 8 4 20 4 20 6 -4 1
-30 19 -47 31 -28 5 8 9 5 13 -10 4 -15 11 -21 20 -17 10 4 17 -2 20 -15 4
-13 11 -19 21 -15 8 3 17 -1 20 -10 4 -8 13 -13 21 -9 9 3 15 0 15 -8 0 -18
27 -28 34 -13 2 7 5 5 5 -4 1 -22 31 -48 32 -28 0 8 4 3 10 -9 5 -13 15 -22
21 -19 7 2 19 -3 25 -12 11 -14 14 -14 23 -1 8 13 10 13 10 -2 0 -16 6 -20 26
-17 3 0 11 -7 18 -17 7 -9 18 -14 24 -10 7 4 12 1 12 -7 0 -19 27 -30 34 -14
2 7 5 4 5 -7 1 -13 7 -17 19 -14 12 3 24 -2 31 -15 11 -16 15 -17 22 -6 7 11
9 11 9 -3 0 -15 13 -24 23 -15 2 1 12 -6 22 -17 12 -12 21 -14 23 -7 2 7 9 6
19 -4 8 -8 18 -13 23 -10 4 3 11 -2 14 -11 3 -9 12 -14 19 -11 8 3 19 -5 27
-16 13 -21 13 -21 21 -2 6 16 8 17 8 3 1 -23 21 -34 32 -17 7 11 9 11 9 -2 0
-20 27 -33 34 -16 2 7 5 5 5 -4 1 -20 28 -33 35 -16 2 7 5 4 5 -7 1 -13 6 -17
21 -13 11 3 20 1 20 -4 0 -14 28 -11 33 4 3 7 6 5 6 -5 1 -16 6 -19 26 -18 3
1 13 -7 22 -15 11 -12 18 -13 23 -5 5 8 9 7 14 -5 3 -9 12 -15 18 -13 7 3 19
-2 27 -10 11 -11 16 -11 19 -3 3 8 9 6 18 -6 12 -16 15 -16 24 -3 8 13 10 13
10 -1 0 -23 28 -32 33 -11 3 12 5 11 6 -6 1 -22 19 -26 33 -7 4 6 8 2 8 -9 0
-13 5 -17 18 -14 10 3 24 -2 32 -10 10 -11 15 -12 18 -3 3 8 9 6 19 -6 11 -14
16 -15 20 -5 4 10 9 9 20 -5 11 -14 16 -15 20 -5 4 10 8 9 19 -5 12 -16 15
-16 24 -3 8 13 10 13 10 -1 0 -19 30 -35 30 -16 0 8 3 8 9 -2 5 -7 15 -11 22
-9 8 3 20 -2 28 -9 11 -12 15 -12 22 -1 7 11 9 11 9 -1 0 -8 7 -11 18 -9 10 3
24 -2 32 -10 9 -11 15 -12 18 -4 2 8 9 7 19 -4 13 -13 17 -13 24 -2 7 11 9 11
9 -1 0 -8 7 -11 20 -8 11 3 20 1 20 -5 0 -6 9 -8 20 -5 11 3 20 1 20 -3 0 -5
8 -7 17 -6 10 2 24 -4 32 -11 11 -12 15 -12 22 -1 7 10 9 10 9 1 0 -7 7 -13
15 -13 8 0 15 5 15 12 0 6 6 4 13 -7 10 -13 16 -15 21 -6 6 9 11 9 22 0 8 -6
17 -9 21 -6 3 4 13 1 21 -6 12 -10 16 -9 20 1 3 10 7 10 18 1 8 -7 17 -9 21
-5 3 3 15 -2 26 -11 11 -10 17 -12 13 -5 -8 14 20 17 29 3 3 -5 19 -8 35 -6
17 2 30 0 30 -4 0 -4 18 -7 40 -6 22 1 40 -1 40 -4 0 -4 19 -7 43 -7 78 -2
132 -9 139 -19 5 -6 8 -5 8 3 0 8 5 10 12 6 7 -4 35 -8 64 -8 29 -1 56 -4 60
-8 4 -4 13 -3 20 3 8 7 14 7 19 -1 5 -8 10 -8 20 0 8 7 15 7 19 1 3 -5 16 -7
28 -3 13 3 19 1 15 -5 -3 -5 0 -10 8 -10 8 0 14 3 13 6 -4 43 10 65 16 25 2
-12 11 -18 31 -18 22 0 29 5 32 24 4 29 13 39 14 17 3 -33 4 -37 14 -36 6 1
11 20 13 43 4 59 10 68 12 19 2 -24 3 -48 4 -55 0 -7 14 -12 31 -12 29 0 30 1
33 55 4 74 10 85 12 22 3 -71 4 -73 15 -73 12 0 12 1 15 83 3 70 8 60 12 -26
4 -74 22 -79 26 -7 4 81 9 93 12 28 3 -77 3 -78 15 -78 6 0 11 26 13 57 4 86
9 96 12 26 3 -82 3 -83 15 -85 6 -2 11 23 13 57 4 78 10 94 11 28 1 -40 5 -53
16 -53 18 0 20 36 3 43 -10 4 -10 6 0 6 7 1 13 18 14 44 1 36 2 38 5 10 5 -41
33 -46 33 -6 0 33 9 26 12 -10 3 -32 15 -25 27 16 7 25 9 27 10 10 2 -36 29
-28 34 10 4 32 4 32 5 -5 2 -47 29 -43 35 5 l4 32 1 -32 c1 -21 7 -33 16 -33
9 0 16 13 19 33 l4 32 1 -33 c2 -41 24 -39 33 4 l7 29 1 -27 c1 -33 27 -29 34
5 l4 22 2 -21 c0 -12 8 -24 16 -28 11 -4 15 3 16 27 1 29 2 30 8 7 5 -22 33
-43 30 -23 -1 5 0 19 1 33 l2 25 6 -23 c4 -13 12 -23 17 -23 6 0 13 10 17 23
l6 23 1 -22 c1 -34 31 -29 32 5 1 16 3 20 6 10 2 -10 10 -18 16 -18 7 0 6 -4
-3 -10 -13 -8 -12 -10 3 -10 12 0 17 8 18 28 1 15 3 20 6 10 2 -9 11 -19 19
-22 10 -4 14 3 15 22 2 23 2 24 6 5 2 -13 11 -23 19 -23 8 0 14 10 15 23 0 18
2 19 7 5 8 -19 25 -12 35 12 4 11 6 9 6 -6 1 -11 8 -21 16 -21 8 0 15 9 15 21
0 17 2 18 9 6 6 -8 7 -18 5 -22 -3 -4 2 -5 10 -2 9 3 17 16 17 28 1 15 3 16 6
4 2 -9 11 -19 19 -22 10 -4 14 3 15 27 2 31 2 31 6 4 5 -33 25 -31 34 4 7 23
7 23 8 2 1 -34 31 -29 32 5 2 23 2 24 6 5 2 -13 9 -23 14 -23 5 0 14 10 19 23
l9 22 0 -24 c1 -20 3 -21 16 -11 8 7 15 20 16 29 0 14 1 14 7 1 10 -21 32 -23
33 -3 0 11 3 13 6 6 7 -19 31 -16 36 5 4 16 5 16 6 0 1 -22 31 -12 32 11 0 10
2 11 6 4 7 -19 33 -16 33 5 0 13 2 14 9 3 6 -8 14 -10 22 -5 8 5 22 7 32 6 11
-2 17 3 18 15 0 10 3 13 6 6 7 -19 33 -16 33 3 0 14 2 15 17 3 11 -10 17 -11
20 -3 2 7 13 10 23 7 11 -3 20 -1 20 5 0 6 9 8 20 5 13 -3 20 0 20 8 0 12 2
12 9 1 7 -11 11 -11 22 1 8 7 22 13 32 11 9 -1 17 2 17 7 0 4 7 6 15 3 8 -4
17 1 21 9 3 9 12 13 19 11 7 -3 16 0 20 5 3 6 11 9 16 5 5 -3 16 0 24 6 8 7
15 10 15 7 0 -3 51 13 113 35 61 22 119 41 128 43 9 2 36 12 60 23 24 11 62
26 84 33 22 8 42 16 45 19 3 3 10 6 15 7 10 1 152 66 188 84 9 6 17 7 17 5 0
-3 -19 -15 -42 -27 -24 -12 -45 -25 -48 -28 -5 -7 -116 -66 -167 -90 -20 -9
-33 -23 -33 -33 0 -25 21 -23 27 3 5 16 8 18 15 7 7 -11 11 -10 21 3 6 9 20
15 30 13 9 -1 17 4 17 12 0 8 6 11 15 8 8 -4 17 1 21 10 3 9 10 14 14 11 5 -3
14 0 22 7 7 7 20 14 28 16 8 2 17 8 18 13 2 5 7 7 12 4 5 -3 14 0 22 7 7 7 20
14 28 16 8 2 18 8 21 14 3 5 9 9 13 9 20 -3 26 1 26 14 0 9 6 12 15 9 8 -4 17
1 21 9 3 9 12 13 20 10 7 -3 16 2 20 10 3 9 12 13 20 10 7 -3 17 2 20 11 3 9
10 14 14 11 5 -3 16 2 24 11 9 8 16 12 16 7 1 -4 9 1 18 12 10 11 24 21 31 23
7 1 20 9 28 17 8 8 19 15 24 15 5 0 9 8 10 18 0 9 3 12 5 5 8 -19 34 -3 35 21
0 11 3 16 5 9 7 -15 34 -5 34 13 0 8 6 11 15 8 8 -4 17 1 21 10 3 9 10 14 14
11 5 -3 15 3 22 13 13 19 18 22 38 22 6 0 10 7 10 15 0 9 6 12 15 9 8 -4 17 1
21 10 3 9 12 16 19 16 7 0 15 7 19 15 3 8 11 15 18 15 7 0 26 14 42 30 16 17
38 30 48 30 11 0 18 7 18 20 0 18 -10 25 -32 21 -5 0 -8 6 -8 14 0 13 -12 19
-32 16 -4 0 -10 9 -13 20 -4 12 -12 18 -21 15 -8 -3 -14 1 -14 9 0 8 -8 15
-18 15 -9 0 -23 9 -30 21 -7 12 -16 18 -19 15 -3 -3 -12 2 -20 10 -8 8 -18 12
-23 9 -4 -3 -10 2 -14 10 -3 8 -11 15 -18 15 -7 0 -19 10 -27 21 -10 18 -15
19 -22 8 -7 -11 -9 -11 -9 4 0 15 -6 19 -26 16 -3 0 -12 8 -19 18 -7 10 -17
15 -21 11 -4 -5 -14 1 -21 12 -8 11 -18 18 -23 15 -4 -3 -11 2 -14 11 -4 9
-13 14 -21 10 -9 -3 -15 0 -15 9 0 13 -6 17 -26 14 -3 0 -11 7 -18 17 -7 9
-18 14 -23 11 -6 -4 -14 0 -17 9 -3 9 -13 14 -20 11 -8 -3 -17 1 -20 9 -7 17
-26 19 -26 1 0 -7 17 -21 38 -32 20 -11 39 -22 42 -25 14 -14 222 -150 231
-150 5 0 9 -5 9 -10 0 -12 -34 3 -60 25 -16 14 -357 186 -375 189 -5 1 -30 11
-55 22 -25 11 -66 29 -92 39 -27 10 -48 21 -48 26 0 5 -6 6 -14 3 -8 -3 -17 0
-21 5 -3 6 -11 9 -16 6 -5 -4 -9 -1 -9 5 0 6 -4 8 -10 5 -6 -3 -10 -1 -10 6 0
7 -3 10 -6 6 -4 -3 -13 1 -22 9 -12 13 -16 13 -23 2 -7 -10 -9 -8 -9 6 0 13
-5 17 -18 14 -10 -3 -24 2 -32 10 -10 11 -15 12 -18 3 -3 -8 -8 -6 -18 6 -12
16 -15 16 -24 3 -8 -13 -10 -13 -10 3 0 20 -26 23 -33 5 -3 -8 -6 -5 -6 5 -1
12 -7 17 -18 15 -10 -2 -24 3 -30 12 -11 13 -14 13 -23 0 -8 -13 -10 -12 -10
4 0 13 -5 17 -18 14 -10 -3 -24 2 -32 10 -12 13 -15 13 -21 -4 -7 -17 -8 -17
-8 4 -1 26 -27 30 -34 5 -4 -14 -5 -13 -6 3 -1 27 -28 39 -34 16 -4 -16 -5
-15 -6 1 -1 19 -31 24 -32 5 0 -7 -4 -3 -9 10 -11 26 -30 29 -31 5 0 -14 -2
-15 -6 -3 -4 8 -12 21 -20 28 -11 11 -13 10 -14 -10 l-1 -23 -7 24 c-9 33 -28
38 -34 9 l-4 -23 -2 23 c-1 23 -26 31 -34 10 -4 -8 -6 -7 -6 3 -1 23 -31 33
-32 11 0 -11 -3 -9 -10 8 -10 24 -11 24 -25 6 -13 -18 -19 -13 -16 15 1 3 -6
6 -14 6 -7 0 -14 -10 -15 -21 0 -21 0 -21 -9 0 -13 33 -30 39 -31 12 0 -14 -3
-17 -6 -8 -2 8 -7 22 -10 30 -4 12 -7 12 -19 -4 -14 -19 -14 -19 -14 2 0 25
-26 20 -33 -6 -3 -10 -5 -4 -6 11 -1 34 -22 32 -32 -4 -6 -21 -7 -19 -8 11
l-2 35 -19 -24 c-19 -22 -20 -22 -20 -3 0 11 -7 25 -15 32 -13 11 -15 8 -15
-20 0 -38 -9 -36 -12 3 -3 32 -21 30 -29 -3 -6 -23 -7 -23 -8 6 -1 35 -30 44
-32 10 -1 -19 -2 -18 -8 3 -10 36 -31 38 -32 4 l-1 -28 -7 29 c-8 40 -31 46
-32 9 l-1 -28 -7 29 c-9 43 -31 45 -32 4 -2 -30 -2 -30 -6 -5 -2 15 -8 27 -13
27 -5 0 -7 7 -4 15 4 8 2 15 -3 15 -5 0 -10 -17 -11 -37 -4 -46 -12 -57 -12
-16 0 40 -27 52 -33 15 -4 -25 -4 -25 -6 4 -2 48 -29 52 -34 6 l-4 -37 -1 38
c-1 20 -6 37 -12 37 -6 0 -6 9 0 26 13 34 13 44 -4 44 -9 0 -13 -17 -14 -61
-1 -34 -3 -64 -6 -67 -6 -5 -10 66 -6 101 1 10 -3 24 -9 31 -9 11 -5 13 19 11
17 -1 28 0 25 3 -6 7 -24 10 -72 16 l-33 4 -2 -72 -2 -71 -5 75 -6 74 -34 1
-35 0 1 -65 c2 -75 -5 -61 -9 20 -2 30 -8 54 -13 53 -11 -3 -11 -4 -16 -80
l-3 -58 -5 70 c-5 59 -9 70 -23 67 -10 -2 -18 1 -18 6 0 5 -7 9 -15 9 -11 0
-15 -12 -17 -41 l-1 -41 -4 38 c-3 29 -8 37 -21 35 -12 -2 -16 -11 -14 -33 5
-39 -5 -29 -11 10 -3 25 -8 29 -27 27 -15 -3 -20 0 -15 8 6 9 2 9 -13 1 -15
-8 -21 -8 -25 2 -3 9 -7 9 -19 0 -8 -7 -18 -10 -21 -6 -10 10 -427 10 -427 0
0 -5 -7 -4 -15 3 -8 6 -20 8 -27 4 -18 -11 -48 -12 -54 -2 -3 5 -12 4 -20 -3
-11 -9 -17 -9 -29 1 -12 10 -15 9 -15 -4z m637 -38 c-3 -8 -6 -5 -6 6 -1 11 2
17 5 13 3 -3 4 -12 1 -19z m47 7 c-4 -8 -8 -15 -10 -15 -2 0 -4 7 -4 15 0 8 4
15 10 15 5 0 7 -7 4 -15z m118 -32 c-6 -65 -10 -70 -11 -15 0 28 3 52 7 52 4
0 6 -17 4 -37z m131 19 c-6 -4 -13 -32 -16 -62 l-3 -55 -2 63 c-2 53 0 62 16
62 11 0 13 -3 5 -8z m69 -33 c3 -18 2 -46 -3 -63 -6 -26 -7 -22 -8 26 -1 35
-6 58 -13 61 -8 4 -7 6 3 6 11 1 18 -9 21 -30z m-680 -2021 c2 -22 0 -38 -7
-38 -6 0 -8 20 -6 52 5 54 7 51 13 -14z m-119 -18 c3 -12 0 -20 -8 -20 -8 0
-11 8 -8 20 3 11 7 20 8 20 1 0 5 -9 8 -20z"/>
<path d="M6335 6412 c4 -4 15 -8 26 -8 10 -1 20 -3 22 -4 7 -7 57 -6 57 2 0 4
-3 8 -7 9 -5 0 -30 2 -57 4 -26 2 -45 1 -41 -3z"/>
<path d="M6456 6401 c-4 -5 -2 -12 3 -15 5 -4 12 -2 15 3 4 5 2 12 -3 15 -5 4
-12 2 -15 -3z"/>
<path d="M6490 6388 c0 -4 8 -8 18 -9 9 0 24 -2 32 -4 8 -2 30 -6 49 -10 19
-3 37 -8 41 -10 4 -2 7 2 7 10 0 7 -8 12 -18 10 -10 -2 -21 0 -24 5 -3 5 -12
7 -20 4 -8 -3 -20 -2 -27 2 -16 10 -58 12 -58 2z"/>
<path d="M6336 6383 c-12 -13 -6 -33 12 -32 12 0 13 2 3 6 -10 4 -10 7 -1 13
7 4 8 10 2 13 -5 4 -12 4 -16 0z"/>
<path d="M6655 6360 c-3 -5 1 -10 10 -10 9 0 13 5 10 10 -3 6 -8 10 -10 10 -2
0 -7 -4 -10 -10z"/>
<path d="M6690 6350 c0 -6 7 -10 15 -10 8 0 15 2 15 4 0 2 -7 6 -15 10 -8 3
-15 1 -15 -4z"/>
<path d="M6738 6333 c7 -3 16 -2 19 1 4 3 -2 6 -13 5 -11 0 -14 -3 -6 -6z"/>
<path d="M6778 6323 c7 -3 16 -2 19 1 4 3 -2 6 -13 5 -11 0 -14 -3 -6 -6z"/>
<path d="M6810 6318 c0 -4 7 -8 15 -8 8 0 15 4 15 8 0 5 -7 9 -15 9 -8 0 -15
-4 -15 -9z"/>
<path d="M6855 6310 c-3 -5 1 -10 10 -10 9 0 13 5 10 10 -3 6 -8 10 -10 10 -2
0 -7 -4 -10 -10z"/>
<path d="M6890 6300 c0 -6 7 -10 15 -10 8 0 15 2 15 4 0 2 -7 6 -15 10 -8 3
-15 1 -15 -4z"/>
<path d="M6930 6296 c0 -2 7 -9 15 -16 9 -7 15 -8 15 -2 0 5 -7 12 -15 16 -8
3 -15 4 -15 2z"/>
<path d="M7014 6268 c-4 -7 -4 -10 1 -6 4 4 15 2 24 -5 14 -11 14 -10 2 6 -16
20 -18 21 -27 5z"/>
<path d="M7090 6240 c0 -6 7 -10 15 -10 8 0 15 2 15 4 0 2 -7 6 -15 10 -8 3
-15 1 -15 -4z"/>
<path d="M7130 6230 c0 -5 5 -10 11 -10 5 0 7 5 4 10 -3 6 -8 10 -11 10 -2 0
-4 -4 -4 -10z"/>
<path d="M7210 6200 c0 -5 5 -10 11 -10 5 0 7 5 4 10 -3 6 -8 10 -11 10 -2 0
-4 -4 -4 -10z"/>
<path d="M7250 6186 c0 -2 7 -7 16 -10 8 -3 12 -2 9 4 -6 10 -25 14 -25 6z"/>
<path d="M7297 6169 c7 -7 15 -10 18 -7 3 3 -2 9 -12 12 -14 6 -15 5 -6 -5z"/>
<path d="M7330 6161 c0 -5 7 -12 16 -15 14 -5 15 -4 4 9 -14 17 -20 19 -20 6z"/>
<path d="M7410 6131 c0 -5 7 -11 15 -15 8 -3 15 -1 15 3 0 5 -7 11 -15 15 -8
3 -15 1 -15 -3z"/>
<path d="M7454 6109 c-4 -7 -3 -9 4 -5 5 3 13 0 15 -6 4 -9 6 -10 6 -1 1 17
-16 25 -25 12z"/>
<path d="M7490 6101 c0 -10 19 -25 25 -20 1 2 -3 10 -11 17 -8 7 -14 8 -14 3z"/>
<path d="M7530 6076 c0 -2 7 -7 16 -10 8 -3 12 -2 9 4 -6 10 -25 14 -25 6z"/>
<path d="M7572 6058 c5 -15 28 -23 28 -10 0 5 -7 13 -16 16 -10 4 -14 1 -12
-6z"/>
<path d="M7610 6041 c0 -5 7 -12 16 -15 14 -5 15 -4 4 9 -14 17 -20 19 -20 6z"/>
<path d="M7650 6020 c0 -6 7 -10 15 -10 8 0 15 2 15 4 0 2 -7 6 -15 10 -8 3
-15 1 -15 -4z"/>
<path d="M7690 6012 c0 -5 7 -15 15 -22 8 -7 15 -8 15 -2 0 5 -7 15 -15 22 -8
7 -15 8 -15 2z"/>
<path d="M7732 5988 c5 -15 28 -23 28 -10 0 5 -7 13 -16 16 -10 4 -14 1 -12
-6z"/>
<path d="M7772 5968 c5 -15 28 -23 28 -10 0 5 -7 13 -16 16 -10 4 -14 1 -12
-6z"/>
<path d="M7812 5948 c6 -18 28 -21 28 -4 0 9 -7 16 -16 16 -9 0 -14 -5 -12
-12z"/>
<path d="M7850 5932 c0 -5 7 -16 16 -23 14 -12 16 -11 13 5 -4 20 -29 35 -29
18z"/>
<path d="M7890 5907 c0 -8 7 -18 16 -21 11 -4 14 -1 12 11 -4 21 -28 30 -28
10z"/>
<path d="M7930 5887 c0 -7 16 -21 35 -30 30 -14 35 -15 35 -2 0 13 -6 17 -27
14 -3 0 -10 6 -15 15 -11 19 -28 21 -28 3z"/>
<path d="M8012 5843 c2 -9 9 -18 16 -21 18 -6 15 25 -4 32 -11 4 -14 1 -12
-11z"/>
<path d="M8690 5410 c0 -6 7 -10 15 -10 8 0 15 2 15 4 0 2 -7 6 -15 10 -8 3
-15 1 -15 -4z"/>
<path d="M7563 4782 c-40 -20 -73 -42 -73 -49 0 -18 19 -16 26 1 3 8 12 12 20
9 7 -3 17 3 20 12 5 11 9 13 14 5 5 -8 11 -7 23 4 8 9 23 16 31 16 9 0 16 8
16 20 0 11 -1 20 -2 19 -2 0 -36 -17 -75 -37z"/>
<path d="M7443 4724 c-34 -15 -44 -34 -18 -34 8 0 15 5 15 10 0 6 9 10 20 10
11 0 20 7 20 15 0 8 -1 15 -2 14 -2 0 -18 -7 -35 -15z"/>
<path d="M7377 4693 c-11 -11 -8 -20 8 -20 8 0 15 6 15 14 0 14 -12 17 -23 6z"/>
<path d="M7343 4683 c-18 -7 -16 -23 2 -23 8 0 15 7 15 15 0 8 -1 15 -2 14 -2
0 -9 -3 -15 -6z"/>
<path d="M7295 4659 c-4 -6 -5 -13 -2 -16 7 -7 27 6 27 18 0 12 -17 12 -25 -2z"/>
<path d="M7261 4651 c-8 -6 -9 -11 -3 -15 6 -3 14 -1 17 5 9 14 2 20 -14 10z"/>
<path d="M7203 4628 c-34 -11 -44 -25 -18 -25 8 0 15 4 15 9 0 4 9 8 20 8 11
0 20 5 20 10 0 6 -1 10 -2 9 -2 -1 -18 -6 -35 -11z"/>
<path d="M7135 4600 c-3 -5 1 -10 9 -10 9 0 16 5 16 10 0 6 -4 10 -9 10 -6 0
-13 -4 -16 -10z"/>
<path d="M7100 4590 c-13 -8 -12 -10 3 -10 9 0 17 5 17 10 0 12 -1 12 -20 0z"/>
<path d="M7050 4570 c0 -5 4 -10 9 -10 6 0 13 5 16 10 3 6 -1 10 -9 10 -9 0
-16 -4 -16 -10z"/>
<path d="M7020 4560 c-8 -5 -12 -12 -9 -15 4 -3 12 1 19 10 14 17 11 19 -10 5z"/>
<path d="M6970 4539 c0 -5 5 -7 10 -4 6 3 10 8 10 11 0 2 -4 4 -10 4 -5 0 -10
-5 -10 -11z"/>
<path d="M6935 4530 c-3 -6 1 -7 9 -4 18 7 21 14 7 14 -6 0 -13 -4 -16 -10z"/>
<path d="M6896 4522 c-3 -5 1 -9 9 -9 8 0 15 4 15 9 0 4 -4 8 -9 8 -6 0 -12
-4 -15 -8z"/>
<path d="M6780 4490 c-9 -6 -10 -10 -3 -10 6 0 15 5 18 10 8 12 4 12 -15 0z"/>
<path d="M6740 4480 c-9 -6 -10 -10 -3 -10 6 0 15 5 18 10 8 12 4 12 -15 0z"/>
<path d="M6625 4450 c-17 -8 -16 -9 7 -7 15 2 30 6 34 10 10 10 -17 8 -41 -3z"/>
<path d="M6490 4420 c0 -5 7 -7 15 -4 8 4 15 8 15 10 0 2 -7 4 -15 4 -8 0 -15
-4 -15 -10z"/>
<path d="M6455 4410 c4 -6 11 -8 16 -5 14 9 11 15 -7 15 -8 0 -12 -5 -9 -10z"/>
<path d="M5813 4383 c0 -22 4 -30 13 -26 8 3 14 12 14 20 0 8 -4 12 -9 8 -5
-3 -11 3 -14 12 -2 10 -4 4 -4 -14z"/>
<path d="M6370 4400 c-23 -7 -23 -8 -3 -9 12 -1 25 4 28 9 3 6 5 10 3 9 -2 -1
-14 -5 -28 -9z"/>
<path d="M6418 4403 c7 -3 16 -2 19 1 4 3 -2 6 -13 5 -11 0 -14 -3 -6 -6z"/>
<path d="M5853 4380 c1 -11 5 -20 9 -20 3 0 6 9 5 20 -1 11 -5 20 -9 20 -3 0
-6 -9 -5 -20z"/>
<path d="M6313 4393 c-13 -2 -23 -8 -23 -13 0 -10 38 -1 46 11 3 5 4 8 2 8 -2
-1 -13 -4 -25 -6z"/>
<path d="M6216 4371 c-6 -9 51 -7 61 3 4 3 -8 6 -25 6 -17 0 -33 -4 -36 -9z"/>
<path d="M6136 4361 c-4 -5 8 -7 26 -4 44 7 49 13 10 13 -17 0 -33 -4 -36 -9z"/>
<path d="M6015 4350 c-3 -5 1 -10 10 -10 9 0 13 5 10 10 -3 6 -8 10 -10 10 -2
0 -7 -4 -10 -10z"/>
<path d="M6056 4352 c-3 -5 1 -9 9 -9 8 0 15 4 15 9 0 4 -4 8 -9 8 -6 0 -12
-4 -15 -8z"/>
<path d="M6098 4353 c7 -3 16 -2 19 1 4 3 -2 6 -13 5 -11 0 -14 -3 -6 -6z"/>
<path d="M5856 4341 c-4 -5 -2 -12 3 -15 5 -4 12 -2 15 3 4 5 2 12 -3 15 -5 4
-12 2 -15 -3z"/>
<path d="M5896 4341 c-4 -5 -2 -12 3 -15 5 -4 12 -2 15 3 4 5 2 12 -3 15 -5 4
-12 2 -15 -3z"/>
<path d="M5930 4339 c0 -5 4 -8 9 -5 5 4 12 0 14 -6 3 -8 6 -6 6 5 1 9 -6 17
-14 17 -8 0 -15 -5 -15 -11z"/>
<path d="M5978 4343 c7 -3 16 -2 19 1 4 3 -2 6 -13 5 -11 0 -14 -3 -6 -6z"/>
<path d="M5770 4330 c0 -5 7 -10 15 -10 8 0 15 5 15 10 0 6 -7 10 -15 10 -8 0
-15 -4 -15 -10z"/>
<path d="M5818 4333 c7 -3 16 -2 19 1 4 3 -2 6 -13 5 -11 0 -14 -3 -6 -6z"/>
</g>
</svg>
